The film takes place a few years after the events of the third film, with Peaches in her teenage years. Scrat's never-ending pursuit of acorns has world-changing consequences, separating Manny, Sid and Diego from the rest, forcing them to stand up to a pirate gang, led by Captain Gutt.

Screens 
http://bayimg.com/bADbLaaek 
http://bayimg.com/BAdBmAAeK 
http://bayimg.com/badbnaAek 
http://bayimg.com/BAdbOAaeK

General
Format                                   : AVI
Format/Info                              : Audio Video Interleave
File size                                : 747 MiB
Duration                                 : 1h 27mn
Overall bit rate mode                    : Variable
Overall bit rate                         : 1 189 Kbps

Video
ID                                       : 0
Format                                   : MPEG-4 Visual
Format profile                           : Advanced Simple@L5
Format settings, BVOP                    : 2
Format settings, QPel                    : No
Format settings, GMC                     : No warppoints
Format settings, Matrix                  : Default (H.263)
Codec ID                                 : XVID
Codec ID/Hint                            : XviD
Duration                                 : 1h 27mn
Bit rate                                 : 983 Kbps
Width                                    : 656 pixels
Height                                   : 272 pixels
Display aspect ratio                     : 2.40:1
Frame rate                               : 23.976 fps
Color space                              : YUV
Chroma subsampling                       : 4:2:0
Bit depth                                : 8 bits
Scan type                                : Progressive
Compression mode                         : Lossy
Bits/(Pixel*Frame)                       : 0.230
Stream size                              : 617 MiB (83%)
Writing library                          : XviD 1.2.1 (UTC 2008-12-04)

Audio 
ID                                       : 1
Format                                   : MPEG Audio
Format version                           : Version 1
Format profile                           : Layer 3
Mode                                     : Joint stereo
Mode extension                           : MS Stereo
Codec ID                                 : 55
Codec ID/Hint                            : MP3
Duration                                 : 1h 19mn
Bit rate mode                            : Constant
Bit rate                                 : 80.0 Kbps
Channel(s)                               : 2 channels
Sampling rate                            : 32.0 KHz
Compression mode                         : Lossy
Stream size                              : 45.6 MiB (6%)
Alignment                                : Aligned on interleaves
Interleave, duration                     : 184 ms (4.41 video frames)
Interleave, preload duration             : 216 ms
Title                                    : Ice Age Continental Drift (2012) ~ DVDScr ~ Tamil ~ 700MB ~ Team TMT ~ S!v@.mp4_track_1_
Writing library                          : LAME3.99r
Encoding settings                        : -m j -V 4 -q 2 -lowpass 13.5 -b 80